<?xml version="1.0" encoding="UTF-8"?><svg id="Layer_1" xmlns="http://www.w3.org/2000/svg" viewBox="0 0 640 172"><defs><style>.cls-1{letter-spacing:.04em;}.cls-2{fill:#0c11d4;}.cls-2,.cls-3{stroke-width:0px;}.cls-4{font-family:Lineal-Medium, Lineal;font-size:36px;font-weight:500;}.cls-4,.cls-3{fill:#fff;}.cls-5{letter-spacing:.07em;}.cls-6{letter-spacing:.04em;}</style></defs><text class="cls-4" transform="translate(-675.33 95.92)"><tspan class="cls-5" x="0" y="0">PUBLI</tspan><tspan class="cls-6" x="84.63" y="0">C</tspan><tspan class="cls-5" x="101.81" y="0">GOODS.C</tspan><tspan class="cls-1" x="257.14" y="0">L</tspan><tspan class="cls-5" x="271.18" y="0">UB</tspan></text><path class="cls-2" d="M126.93,64.18h8.99c2.4,0,4.61.59,6.6,1.77,2,1.18,3.58,2.78,4.74,4.8s1.74,4.23,1.74,6.63-.58,4.68-1.74,6.69c-1.16,2.02-2.74,3.61-4.74,4.77-2,1.16-4.2,1.74-6.6,1.74h-1.65v16.75h-7.34v-43.16ZM135.92,83.01c1.59,0,2.91-.55,3.97-1.65s1.59-2.42,1.59-3.97-.53-2.88-1.59-4c-1.06-1.12-2.38-1.68-3.97-1.68h-1.65v11.31h1.65Z"/><path class="cls-2" d="M160.19,105.76c-2.08-1.18-3.71-2.79-4.89-4.83-1.18-2.04-1.77-4.3-1.77-6.79v-29.96h7.64v29.84c0,1.63.58,3.02,1.74,4.16,1.16,1.14,2.58,1.71,4.25,1.71s3.01-.57,4.13-1.71c1.12-1.14,1.68-2.53,1.68-4.16v-29.84h7.7v29.96c0,2.49-.6,4.75-1.8,6.79-1.2,2.04-2.83,3.65-4.89,4.83-2.06,1.18-4.33,1.77-6.82,1.77s-4.89-.59-6.97-1.77Z"/><path class="cls-2" d="M187.64,64.18h9.29c2.2,0,4.21.52,6.02,1.56,1.81,1.04,3.24,2.46,4.28,4.25,1.04,1.79,1.56,3.79,1.56,5.99,0,2.04-.48,3.9-1.44,5.59-.96,1.69-2.31,3.07-4.07,4.13,1.75,1.06,3.11,2.44,4.07,4.13.96,1.69,1.44,3.56,1.44,5.59,0,2.2-.52,4.21-1.56,6.02-1.04,1.81-2.47,3.25-4.28,4.31-1.81,1.06-3.82,1.59-6.02,1.59h-9.29v-43.16ZM196.08,82.4c1.51,0,2.79-.55,3.85-1.65,1.06-1.1,1.59-2.45,1.59-4.03s-.52-2.84-1.56-3.88-2.33-1.56-3.88-1.56h-1.1v11.13h1.1ZM196.08,100.19c1.51,0,2.79-.54,3.85-1.62,1.06-1.08,1.59-2.39,1.59-3.94s-.52-2.84-1.56-3.88c-1.04-1.04-2.33-1.56-3.88-1.56h-1.1v11h1.1Z"/><path class="cls-2" d="M214.3,64.18h7.34v35.83h8.74v7.34h-16.08v-43.16Z"/><path class="cls-2" d="M235.51,64.18h7.34v43.16h-7.34v-43.16Z"/><path class="cls-2" d="M259.54,105.24c-3.42-1.98-6.12-4.67-8.1-8.07-1.98-3.4-2.96-7.2-2.96-11.4s.99-8,2.96-11.4c1.98-3.4,4.68-6.09,8.1-8.07,3.42-1.98,7.23-2.97,11.43-2.97v7.4c-2.81,0-5.37.66-7.67,1.99-2.3,1.32-4.12,3.13-5.44,5.41-1.33,2.28-1.99,4.83-1.99,7.64s.66,5.36,1.99,7.64c1.32,2.28,3.14,4.09,5.44,5.41,2.3,1.33,4.86,1.99,7.67,1.99v7.4c-4.2,0-8.01-.99-11.43-2.97Z"/><path class="cls-2" d="M309.06,107.41l-2.02-.06c-3.91-.16-7.44-1.2-10.58-3.12-3.14-1.92-5.6-4.49-7.4-7.73-1.79-3.24-2.69-6.82-2.69-10.73,0-4.2.99-8.01,2.96-11.43,1.98-3.42,4.69-6.11,8.13-8.07,3.44-1.96,7.27-2.94,11.46-2.94.45,0,1.2.04,2.26.12v7.46c-.77-.12-1.55-.18-2.32-.18-2.81,0-5.37.65-7.67,1.96-2.3,1.31-4.11,3.11-5.41,5.41-1.3,2.3-1.96,4.86-1.96,7.67,0,3.34.97,6.27,2.9,8.77,1.94,2.51,4.45,4.17,7.55,4.98v-16.32h6.91v24.15l-2.14.06Z"/><path class="cls-2" d="M327.28,105.24c-3.42-1.98-6.12-4.67-8.1-8.07-1.98-3.4-2.96-7.2-2.96-11.4s.99-8,2.96-11.4c1.98-3.4,4.68-6.09,8.1-8.07,3.42-1.98,7.23-2.97,11.43-2.97s7.95.99,11.37,2.97c3.42,1.98,6.12,4.68,8.1,8.1,1.98,3.42,2.97,7.21,2.97,11.37s-.99,7.95-2.97,11.37c-1.98,3.42-4.68,6.12-8.1,8.1-3.42,1.98-7.21,2.97-11.37,2.97s-8.01-.99-11.43-2.97ZM346.33,98.82c2.3-1.32,4.12-3.14,5.44-5.44,1.32-2.3,1.99-4.84,1.99-7.61s-.66-5.31-1.99-7.61c-1.33-2.3-3.14-4.12-5.44-5.44-2.3-1.32-4.84-1.99-7.61-1.99s-5.37.66-7.67,1.99c-2.3,1.32-4.12,3.13-5.44,5.41-1.33,2.28-1.99,4.83-1.99,7.64s.66,5.36,1.99,7.64c1.32,2.28,3.14,4.09,5.44,5.41,2.3,1.33,4.86,1.99,7.67,1.99s5.31-.66,7.61-1.99Z"/><path class="cls-2" d="M376.13,105.24c-3.42-1.98-6.12-4.67-8.1-8.07-1.98-3.4-2.96-7.2-2.96-11.4s.99-8,2.96-11.4c1.98-3.4,4.68-6.09,8.1-8.07,3.42-1.98,7.23-2.97,11.43-2.97s7.95.99,11.37,2.97c3.42,1.98,6.12,4.68,8.1,8.1,1.98,3.42,2.97,7.21,2.97,11.37s-.99,7.95-2.97,11.37c-1.98,3.42-4.68,6.12-8.1,8.1-3.42,1.98-7.21,2.97-11.37,2.97s-8.01-.99-11.43-2.97ZM395.18,98.82c2.3-1.32,4.12-3.14,5.44-5.44,1.32-2.3,1.99-4.84,1.99-7.61s-.66-5.31-1.99-7.61c-1.33-2.3-3.14-4.12-5.44-5.44-2.3-1.32-4.84-1.99-7.61-1.99s-5.37.66-7.67,1.99c-2.3,1.32-4.12,3.13-5.44,5.41-1.33,2.28-1.99,4.83-1.99,7.64s.66,5.36,1.99,7.64c1.32,2.28,3.14,4.09,5.44,5.41,2.3,1.33,4.86,1.99,7.67,1.99s5.31-.66,7.61-1.99Z"/><path class="cls-2" d="M415.63,64.12h7.64c3.99,0,7.63.95,10.91,2.84,3.28,1.89,5.86,4.49,7.73,7.8,1.87,3.3,2.81,6.95,2.81,10.94s-.94,7.69-2.81,10.97c-1.88,3.28-4.45,5.88-7.73,7.8-3.28,1.92-6.92,2.87-10.91,2.87h-7.64v-43.23ZM430.27,97.84c2.1-1.24,3.75-2.92,4.95-5.04,1.2-2.12,1.8-4.48,1.8-7.09s-.6-4.91-1.8-7.03c-1.2-2.12-2.85-3.8-4.95-5.04-2.1-1.24-4.43-1.86-7-1.86v27.94c2.57,0,4.9-.62,7-1.86Z"/><path class="cls-2" d="M455.15,106.73c-2.02-1.14-3.6-2.72-4.74-4.74-1.14-2.02-1.71-4.25-1.71-6.69v-.92h7.46v.86c0,1.63.56,3,1.68,4.1,1.12,1.1,2.48,1.65,4.07,1.65s2.93-.55,4.03-1.65,1.65-2.45,1.65-4.03c0-1.67-.55-3.06-1.65-4.16s-2.45-1.65-4.03-1.65c-2.41,0-4.61-.58-6.6-1.74-2-1.16-3.58-2.76-4.74-4.8-1.16-2.04-1.74-4.3-1.74-6.79s.58-4.66,1.74-6.63c1.16-1.98,2.74-3.54,4.74-4.68,2-1.14,4.2-1.71,6.6-1.71,2.53,0,4.8.57,6.82,1.71,2.02,1.14,3.61,2.7,4.77,4.68,1.16,1.98,1.74,4.19,1.74,6.63v.92h-7.46v-.86c0-1.55-.56-2.86-1.68-3.94-1.12-1.08-2.5-1.62-4.13-1.62s-2.87.54-3.97,1.62c-1.1,1.08-1.65,2.4-1.65,3.94,0,1.63.55,3.01,1.65,4.13,1.1,1.12,2.42,1.68,3.97,1.68,2.4,0,4.62.58,6.63,1.74s3.61,2.75,4.77,4.77c1.16,2.02,1.74,4.27,1.74,6.76s-.58,4.67-1.74,6.66c-1.16,2-2.75,3.58-4.77,4.74s-4.23,1.74-6.63,1.74c-2.53,0-4.8-.57-6.82-1.71Z"/><path class="cls-2" d="M501.4,105.24c-3.42-1.98-6.12-4.67-8.1-8.07-1.98-3.4-2.96-7.2-2.96-11.4s.99-8,2.96-11.4c1.98-3.4,4.68-6.09,8.1-8.07,3.42-1.98,7.23-2.97,11.43-2.97v7.4c-2.81,0-5.37.66-7.67,1.99-2.3,1.32-4.12,3.13-5.44,5.41-1.33,2.28-1.99,4.83-1.99,7.64s.66,5.36,1.99,7.64c1.32,2.28,3.14,4.09,5.44,5.41,2.3,1.33,4.86,1.99,7.67,1.99v7.4c-4.2,0-8.01-.99-11.43-2.97Z"/><path class="cls-2" d="M518.77,64.18h7.34v35.83h8.74v7.34h-16.08v-43.16Z"/><path class="cls-2" d="M544.63,105.76c-2.08-1.18-3.71-2.79-4.89-4.83-1.18-2.04-1.77-4.3-1.77-6.79v-29.96h7.64v29.84c0,1.63.58,3.02,1.74,4.16,1.16,1.14,2.58,1.71,4.25,1.71s3.01-.57,4.13-1.71c1.12-1.14,1.68-2.53,1.68-4.16v-29.84h7.7v29.96c0,2.49-.6,4.75-1.8,6.79-1.2,2.04-2.83,3.65-4.89,4.83-2.06,1.18-4.33,1.77-6.82,1.77s-4.89-.59-6.97-1.77Z"/><path class="cls-2" d="M572.08,64.18h9.29c2.2,0,4.21.52,6.02,1.56,1.81,1.04,3.24,2.46,4.28,4.25,1.04,1.79,1.56,3.79,1.56,5.99,0,2.04-.48,3.9-1.44,5.59-.96,1.69-2.31,3.07-4.07,4.13,1.75,1.06,3.11,2.44,4.07,4.13.96,1.69,1.44,3.56,1.44,5.59,0,2.2-.52,4.21-1.56,6.02-1.04,1.81-2.47,3.25-4.28,4.31-1.81,1.06-3.82,1.59-6.02,1.59h-9.29v-43.16ZM580.52,82.4c1.51,0,2.79-.55,3.85-1.65,1.06-1.1,1.59-2.45,1.59-4.03s-.52-2.84-1.56-3.88-2.33-1.56-3.88-1.56h-1.1v11.13h1.1ZM580.52,100.19c1.51,0,2.79-.54,3.85-1.62,1.06-1.08,1.59-2.39,1.59-3.94s-.52-2.84-1.56-3.88c-1.04-1.04-2.33-1.56-3.88-1.56h-1.1v11h1.1Z"/><path class="cls-2" d="M71.56,70.2c-.75-6.16-5.99-10.93-12.35-10.93-6.87,0-12.44,5.57-12.44,12.44s5.2,12.06,11.75,12.42c.73-7.07,6.12-12.75,13.04-13.94Z"/><path class="cls-2" d="M89.12,59.27c-6.35,0-11.59,4.75-12.35,10.9,7,1.12,12.47,6.84,13.22,13.96,6.46-.45,11.57-5.83,11.57-12.41s-5.57-12.44-12.44-12.44Z"/><path class="cls-2" d="M89.94,87.87c-.91,6.95-6.32,12.47-13.21,13.56.58,6.34,5.9,11.3,12.39,11.3,6.87,0,12.44-5.57,12.44-12.44s-5.13-11.99-11.62-12.41Z"/><path class="cls-2" d="M58.56,87.86c-6.57.34-11.8,5.77-11.8,12.43s5.57,12.44,12.44,12.44c6.5,0,11.83-4.98,12.39-11.33-6.81-1.15-12.14-6.65-13.04-13.54Z"/><path class="cls-3" d="M74.26,77.54c-4.55,0-8.25,3.7-8.25,8.25s3.7,8.25,8.25,8.25,8.25-3.7,8.25-8.25-3.7-8.25-8.25-8.25ZM74.26,89.5c-2.04,0-3.71-1.66-3.71-3.71s1.66-3.71,3.71-3.71,3.71,1.66,3.71,3.71-1.66,3.71-3.71,3.71Z"/></svg>