<?xml version="1.0" encoding="UTF-8"?><svg id="Layer_1" xmlns="http://www.w3.org/2000/svg" viewBox="0 0 640 640"><defs><style>.cls-1{fill:#0c11d4;}.cls-1,.cls-2{stroke-width:0px;}.cls-3{font-family:Lineal-Bold, Lineal;font-size:44px;font-weight:700;}.cls-3,.cls-2{fill:#305df6;}.cls-4{letter-spacing:-.03em;}</style></defs><text class="cls-3" transform="translate(150.23 529.23)"><tspan x="0" y="0">PUBLIC GOODS C</tspan><tspan class="cls-4" x="281.99" y="0">L</tspan><tspan x="296.07" y="0">UB</tspan></text><path class="cls-2" d="M304.3,195.56c-4.51-37.1-36.11-65.84-74.42-65.84-41.41,0-74.98,33.57-74.98,74.98s31.33,72.69,70.8,74.86c4.43-42.59,36.88-76.84,78.6-84Z"/><path class="cls-2" d="M410.12,129.73c-38.25,0-69.81,28.65-74.4,65.66,42.2,6.75,75.16,41.19,79.65,84.11,38.96-2.7,69.72-35.15,69.72-74.79s-33.57-74.98-74.98-74.98Z"/><path class="cls-2" d="M415.09,302.04c-5.48,41.85-38.1,75.17-79.62,81.69,3.48,38.18,35.57,68.09,74.66,68.09,41.41,0,74.98-33.57,74.98-74.98s-30.92-72.25-70.01-74.81Z"/><path class="cls-2" d="M225.99,301.97c-39.6,2.02-71.09,34.77-71.09,74.88s33.57,74.98,74.98,74.98c39.15,0,71.28-30.01,74.67-68.27-41.03-6.93-73.15-40.06-78.56-81.58Z"/><path class="cls-1" d="M320.54,239.81c-27.42,0-49.72,22.31-49.72,49.72s22.31,49.72,49.72,49.72,49.72-22.31,49.72-49.72-22.31-49.72-49.72-49.72ZM320.54,311.88c-12.32,0-22.34-10.02-22.34-22.34s10.02-22.34,22.34-22.34,22.34,10.02,22.34,22.34-10.02,22.34-22.34,22.34Z"/></svg>